<svg version="1" xmlns="http://www.w3.org/2000/svg" width="682.667" height="682.667" viewBox="0 0 512.000000 512.000000"><path d="M238.5 6.6c-20.8 3.1-36.7 8.3-54 17.7-42.4 23-72.6 66-81.6 116.3-2.8 15.7-3.1 42-.6 57.5 1.6 9.5 1.6 10.9.2 14.2-1.1 2.6-1.5 7.2-1.5 16.3v12.7l-33 111c-18.2 61-33 112.3-33 114 0 1.6 1.1 5 2.5 7.3 2.1 3.6 3.9 5 9.8 7.8 27.6 13.1 78.2 22.5 130.9 24.2 22.9.8 27.1.1 32.7-5.6 2.2-2.2 11.5-18.1 24.1-41.2 11.3-20.8 20.8-37.4 21.1-37 .4.4 9.6 16.9 20.4 36.7 10.8 19.8 20.9 37.6 22.4 39.5 1.5 1.9 4.7 4.5 7.2 5.8 4.3 2.3 4.7 2.3 25.9 1.8 45.6-1.2 87.6-7.9 120.1-19.2 18-6.2 23.4-10.5 24.6-19.1.4-3-6.4-26.8-33.1-115.7L410 239.7v-12.9c0-7.5-.5-13.8-1.1-15-.8-1.5-.7-4.8.7-13.2 2.6-15.6 2.4-42-.4-57.6-10.7-60-51.8-109.4-105.9-127.3-17.6-5.8-23.9-6.8-43.8-7.2-9.9-.2-19.3-.1-21 .1zm42 10.9c11.4 2 26.9 7.2 37.7 12.5 8 4.1 23.8 14 23.8 15 0 1.3-29.7 20.3-37.1 23.8-9.1 4.3-21.5 7.7-31.9 8.7-8.9.8-26-1-37.8-4.2-14.5-3.8-15.8-3.9-17.2-1.3-2.1 3.9.1 6.5 7.2 8.9 21.8 7.1 47.2 8.3 67 3.2 11.4-3 23.2-9 41.4-21.3l16.3-11 3.4 2.6c4.8 3.7 12.1 12.6 11.1 13.5-2.6 2.3-22.1 15.6-30.2 20.6-6.4 4-9.4 6.4-9.8 8.1-.8 3 1.1 5.4 4.2 5.4 2.6 0 18.9-10 33.2-20.3 5-3.7 9.4-6.7 9.6-6.7.3 0 2.5 3.1 5 6.9 9 13.5 20.7 41.2 22.3 52.8l.6 4.3h-5.9c-7.4 0-23.1 2.4-30.4 4.6-22.8 6.8-33.9 23.1-30.9 45.3.5 4.2 1.2 8.4 1.5 9.3.5 1.7-2.1 1.8-44.1 1.8h-44.6l2.4-3.3c5.3-7.1 6.1-15.5 2.2-23.4-3.1-6.2-8.7-10.3-14.9-11-7.6-.9-11.4.4-16.5 5.5-7.9 7.9-9 18.3-3 27.7l2.9 4.6-11.7-.3-11.8-.3-2.2-6.5c-5.6-15.9-9.7-22.4-17.1-26.7-5.8-3.4-12.8-3.6-18.8-.5-2.3 1.1-11 8.5-19.4 16.4-17.5 16.4-19.7 18.3-22.6 19.2-2 .6-2.2.1-3.5-7.6-1.7-10.3-1.7-35.6 0-46.3 2.5-15.9 7.9-34.2 13.7-45.7 4.5-9.1 11.9-21.8 12.7-21.8.4 0 4 2.4 8 5.3 9.8 7.3 25.7 16.7 28.2 16.7 2.7 0 4.5-1.8 4.5-4.6 0-2.7-.8-3.3-12.2-10.1-5.1-3-12.3-7.7-16-10.4-7.6-5.7-7.6-4.6-.4-13.2 2.2-2.5 6.3-6.7 9.1-9.1l5.2-4.5 5.9 3.6c3.2 2 11.1 6.5 17.4 10 12.3 6.9 15.4 7.4 16.6 2.7.8-3.2-1-5.2-7.9-8.9-7.8-4.1-23.7-13.6-23.7-14.1 0-.9 13.9-9.4 22.5-13.7 13.9-6.9 32.6-12.3 49-14.1 7.1-.7 27.8.3 37 1.9zm120.9 133.1c.3.9.6 3 .6 4.8v3.3l-7.2 1.2c-17.8 2.9-26.1 7.9-22.3 13.7 1.6 2.4 4.9 3.2 6 1.4.8-1.4 12.1-4.7 18.9-5.5l5.8-.8-.7 8.4c-.3 4.6-1.1 12.1-1.7 16.7-.9 7.2-1.3 8.2-2.7 7.5-.9-.4-13.5-1-28.1-1.3l-26.5-.5-1.3-6c-.7-3.3-1.1-9.5-.9-13.7.3-6.4.8-8.4 3.2-12 6.2-9.6 15.9-14.7 33-17.4 12.1-1.8 23.1-1.8 23.9.2zM238.8 175c4.8 4.7 4.8 11.6.1 16.6-6.4 6.8-17.9 1.6-17.9-8.1 0-7.1 4.1-11.4 10.7-11.5 3.3 0 4.8.6 7.1 3zm-69-.6c5.3 2.7 9.4 9.1 13.3 20.3l1.8 5.3h-26.2l-26.2-.1 11-10.6c11.4-10.9 18.5-16.3 21.7-16.3 1.1 0 3.1.6 4.6 1.4zM130 223.5V235h-14v-9.9c0-9.2.2-10.1 2.2-11.5 1.3-.9 4.3-1.6 7-1.6h4.8v11.5zm30 0V235h-15v-23h15v11.5zm29 0V235h-14v-23h14v11.5zm30 0V235h-15v-23h15v11.5zm29 0V235h-14v-23h14v11.5zm30 0V235h-15v-23h15v11.5zm29 0V235h-14v-23h14v11.5zm30 0V235h-15v-23h15v11.5zm29 0V235h-14v-23h14v11.5zm-201.6 28.7c-.8 2.9-3.5 9.5-6.1 14.6-7.2 14.6-19.5 26.7-35.3 34.7-11.3 5.7-28.6 10.3-27.6 7.4.3-.8 3.3-10.6 6.6-21.9 3.4-11.3 7.5-24.9 9.1-30.3l3-9.7h51.8l-1.5 5.2zm68.4-1.3c2.6 8.5 1 13.7-7.8 24.8-7.1 8.9-11.2 16.2-12.4 22-.6 2.5-1.9 3.8-6 6.2-6.3 3.5-8.8 7-9.3 13.1-.8 10.1 8.6 18 21.6 18 22.2-.1 30-22.4 11.1-32l-3.9-2 1.6-4.6c.8-2.5 3.5-7.1 6-10.2 12.5-16.1 14.9-21.6 13.9-32.5l-.6-6.7h11.8c13.7 0 14.1.2 18.9 10.5 2.4 5.1 2.8 7.3 2.8 14.5 0 8.2-.2 8.9-5.7 21.1-7 15.4-8.8 22-8.8 32.4 0 7.9-.1 8.2-3.1 10.4-6.4 4.7-8.7 12.7-5.5 19 3.9 7.5 12.8 11.7 22.7 10.8 13.1-1.2 21.6-10.6 18.9-20.9-1.3-4.6-8.8-11.5-13.6-12.4-5-.9-5.8-2.4-5-10.4.6-7.4 2.8-13.9 9.5-28.6 7.9-17.5 7.8-24.3-.4-44.7-.7-1.6.7-1.7 20.3-1.7h21l2.7 8.7c10.4 33.4 35.5 55.6 72.7 64.3 5.1 1.1 10.4 2.4 11.7 2.8 2.2.6 3.7 5.1 19.2 56.7 14 46.8 16.5 56.2 15.3 57.1-2.1 1.7-27.4 9.9-40.9 13.3-31.8 8-72.2 13.7-102.4 14.3l-13.4.3-11.6-21c-16.6-30.1-16.6-30-20.7-32-4.7-2.2-13.4-1.7-17.2 1.2-1.6 1.2-8.1 11.9-16.4 26.9l-13.7 24.9-13.8-.3c-25.5-.5-61.5-5.1-89-11.2-16.5-3.7-23.4-5.6-41.6-11.7-13.6-4.5-13.8-4.7-13.2-7.2 1.1-4.3 32.7-110.6 33-110.9.2-.2 4.6-1.2 9.9-2.3 39.4-8 67.3-32 77.1-66.4 1-3.3 1.9-6.3 2.2-6.8.2-.4 11.8-.7 25.7-.7h25.3l1.1 3.9zm174 27.2c5.1 17.2 9 31.4 8.8 31.7-1 .9-15-2.9-22.6-6.2-15.4-6.6-27.5-16.6-35.9-29.5-4.1-6.5-9.4-18.3-10.6-23.9l-.7-3.2h51.8l9.2 31.1zm-184.4 35.1c5.1 2.2 4.5 8-.9 9.8-2.7.9-4 .8-6.5-.5-2.6-1.4-3.1-2.1-2.8-4.8.2-2.2 1.1-3.5 2.8-4.4 3.1-1.6 4.3-1.6 7.4-.1zm59.1 31c5.8 2.6 3.4 9.8-3.2 9.8-5 0-7.3-1.6-7.3-5 0-4.9 5.1-7.3 10.5-4.8zm178.7 114.1c1.7 6.5 2 9.1 1.2 10.4-2.2 3.5-27.5 12-48.5 16.3-25.2 5.2-57.5 8.7-84 9.2-17.1.3-16.7.6-22.3-10.2l-3.6-6.8 6.2-.6c3.5-.3 12.6-1 20.3-1.6 40-3 79.6-10.6 111.6-21.4 8.5-2.9 15.7-4.9 16.1-4.6.4.3 1.7 4.4 3 9.3zM66.5 453c37.7 12.7 83.6 21 129.8 23.6l12.7.7-3.6 6.6c-6.1 11-5.2 10.6-21.7 10.3-40.9-.8-87.4-8-116.9-18-14.1-4.7-16.8-6.3-16.8-9.8 0-2.1 3.9-17.4 4.5-17.4 0 0 5.5 1.8 12 4z"/><path d="M282.3 49c-4.4 4-7.8 4.7-13.2 2.7-4.9-1.8-7.5-1.1-8.4 2.3-1.3 5 6.7 9.6 15.4 8.8 8.8-.9 17.7-9.5 15-14.6-1.6-3-5-2.7-8.8.8zM202.2 96.1c-8.7 4.3-13.4 16.6-10.2 26.3 2.6 7.9 11.3 14.6 19 14.6 7.1 0 15.1-5.5 18.5-12.6 3.3-7.1 1.6-18.5-3.8-24.2-5.8-6.2-15.7-7.9-23.5-4.1zm16.2 10.8c5.7 5.9 4.1 15.8-3.1 18.7-9.2 3.9-17.9-5.4-13.9-14.9 1.8-4.5 5.1-6.7 10.1-6.7 3.2 0 4.7.6 6.9 2.9zM136.6 111.3c-1.2.9-1.7 2.3-1.4 4.2.2 2.4 1.6 3.8 6.8 7.3 10.4 7 16.8 9.8 18.8 8.6 2.3-1.5 2.7-5.2.8-7.3-1.5-1.7-21.6-14.1-22.7-14.1-.3 0-1.3.6-2.3 1.3zM290.5 121.4c-13.9 6.2-16.8 26.1-5.2 36.3 15.3 13.4 37.5-1.6 32.3-21.8-3.2-12.3-16.2-19.3-27.1-14.5zm14.5 11.3c2.2 2 3.3 4 3.7 6.9 1.7 12.9-14.6 18.5-20.2 6.8-5.2-11 7.6-21.6 16.5-13.7z"/></svg>