<?xml version="1.0" encoding="UTF-8" standalone="no"?>
<!DOCTYPE svg PUBLIC "-//W3C//DTD SVG 1.1//EN" "http://www.w3.org/Graphics/SVG/1.1/DTD/svg11.dtd">
<svg width="100%" height="100%" viewBox="0 0 576 512" version="1.1" xmlns="http://www.w3.org/2000/svg" xmlns:xlink="http://www.w3.org/1999/xlink" xml:space="preserve" xmlns:serif="http://www.serif.com/" style="fill-rule:evenodd;clip-rule:evenodd;stroke-linejoin:round;stroke-miterlimit:2;">
    <path d="M480,416L480,432C480,458.51 458.51,480 432,480L48,480C21.49,480 0,458.51 0,432L0,176C0,149.49 21.49,128 48,128L64,128L64,176L54,176C50.708,176 48,178.708 48,182L48,426C48,429.292 50.708,432 54,432L426,432C429.292,432 432,429.292 432,426L432,416L480,416Z"/>
    <path d="M528,32C554.51,32 576,53.49 576,80L576,336C576,362.51 554.51,384 528,384L144,384C117.49,384 96,362.51 96,336L96,80C96,53.49 117.49,32 144,32L528,32ZM522,80L150,80C146.708,80 144,82.708 144,86L144,330C144,333.292 146.708,336 150,336L522,336C525.292,336 528,333.292 528,330L528,86C528,82.708 525.292,80 522,80Z"/>
    <path d="M192,240L231.515,200.485C236.201,195.799 243.799,195.799 248.486,200.485L288,240L391.515,136.485C396.201,131.799 403.799,131.799 408.486,136.485L480,208L480,288L192,288L192,240ZM264,144C264,166.091 246.091,184 224,184C201.909,184 184,166.091 184,144C184,121.909 201.909,104 224,104C246.091,104 264,121.909 264,144Z" style="fill-opacity:0.5;"/>
</svg>
