<?xml version="1.0" encoding="UTF-8" standalone="no"?>
<!DOCTYPE svg PUBLIC "-//W3C//DTD SVG 1.1//EN" "http://www.w3.org/Graphics/SVG/1.1/DTD/svg11.dtd">
<svg width="100%" height="100%" viewBox="0 0 512 512" version="1.1" xmlns="http://www.w3.org/2000/svg" xmlns:xlink="http://www.w3.org/1999/xlink" xml:space="preserve" xmlns:serif="http://www.serif.com/" style="fill-rule:evenodd;clip-rule:evenodd;stroke-linejoin:round;stroke-miterlimit:2;">
    <g>
        <g>
            <path d="M356,123.984L236,33.984C225.709,26.437 212,34.133 212,45.985L212,90.985L165,90.985C74.099,90.985 0,165.084 0,255.985C0,341.484 65.4,411.985 148.801,420.084L105.901,387.984C97.917,382.001 97.937,369.956 105.901,363.984L151.5,329.784C116.4,323.485 90,292.884 90,255.985C90,214.585 123.6,180.985 165,180.985L212,180.985L212,225.985C212,237.826 225.705,245.538 236,237.984L356,147.984C364.001,142.447 364.018,129.537 356,123.984Z" style="fill-rule:nonzero;"/>
        </g>
    </g>
    <g>
        <g>
            <path d="M363.199,91.884L406.099,123.984C414.083,129.971 414.065,142.014 406.099,147.984L360.5,182.184C395.599,188.485 422,219.083 422,255.985C422,297.385 388.4,330.985 347,330.985L302,330.985L302,285.985C302,274.172 288.315,266.419 278,273.984L156,363.984C147.998,369.526 147.982,382.435 156,387.984L278,477.984C287.498,485.375 302,478.43 302,465.985L302,420.985L347,420.985C437.901,420.985 512,346.884 512,255.985C512,170.484 446.6,99.985 363.199,91.884Z" style="fill-rule:nonzero;"/>
        </g>
    </g>
</svg>
